<?xml version="1.0" encoding="UTF-8" standalone="no"?>
<!-- Created with Inkscape (http://www.inkscape.org/) -->

<svg
   version="1.1"
   id="svg25"
   xml:space="preserve"
   width="746"
   height="746.66663"
   viewBox="0 0 746 746.6666"
   xmlns="http://www.w3.org/2000/svg"
   xmlns:svg="http://www.w3.org/2000/svg"><defs
     id="defs29" /><g
     id="g31"
     transform="matrix(1.3333333,0,0,-1.3333333,-25.666666,923.66664)"><g
       id="border"><path
         d="M 257.5,133.5 H 341"
         style="fill:none;stroke:#ff00ff;stroke-width:1.5;stroke-linecap:round;stroke-linejoin:round;stroke-miterlimit:10;stroke-dasharray:none;stroke-opacity:1"
         id="path101" /><path
         d="M 90,692 H 508.5"
         style="fill:none;stroke:#ff00ff;stroke-width:1.5;stroke-linecap:round;stroke-linejoin:round;stroke-miterlimit:10;stroke-dasharray:none;stroke-opacity:1"
         id="path105" /><path
         d="M 20,412.5 V 622"
         style="fill:none;stroke:#ff00ff;stroke-width:1.5;stroke-linecap:round;stroke-linejoin:round;stroke-miterlimit:10;stroke-dasharray:none;stroke-opacity:1"
         id="path109" /><path
         d="M 578,412.5 V 622"
         style="fill:none;stroke:#ff00ff;stroke-width:1.5;stroke-linecap:round;stroke-linejoin:round;stroke-miterlimit:10;stroke-dasharray:none;stroke-opacity:1"
         id="path113" /><path
         d="m 20,622 70,70"
         style="fill:none;stroke:#ff00ff;stroke-width:1.5;stroke-linecap:round;stroke-linejoin:round;stroke-miterlimit:10;stroke-dasharray:none;stroke-opacity:1"
         id="path117" /><path
         d="m 578,622 -69.5,70"
         style="fill:none;stroke:#ff00ff;stroke-width:1.5;stroke-linecap:round;stroke-linejoin:round;stroke-miterlimit:10;stroke-dasharray:none;stroke-opacity:1"
         id="path121" /><path
         d="M 257.5,133.5 20,412.5"
         style="fill:none;stroke:#ff00ff;stroke-width:1.5;stroke-linecap:round;stroke-linejoin:round;stroke-miterlimit:10;stroke-dasharray:none;stroke-opacity:1"
         id="path125" /><path
         d="m 341,133.5 237,279"
         style="fill:none;stroke:#ff00ff;stroke-width:1.5;stroke-linecap:round;stroke-linejoin:round;stroke-miterlimit:10;stroke-dasharray:none;stroke-opacity:1"
         id="path129" /></g><g
       id="leds"><path
         d="m 306.121,535.233 c 5.147,2.662 8.379,7.972 8.379,13.767 0,8.556 -6.944,15.5 -15.5,15.5 -8.556,0 -15.5,-6.944 -15.5,-15.5 0,-5.795 3.232,-11.105 8.379,-13.767"
         style="fill:none;fill-opacity:1;stroke:#008080;stroke-width:1.5;stroke-linecap:round;stroke-linejoin:round;stroke-miterlimit:10;stroke-dasharray:none;stroke-opacity:1"
         id="1" /><path
         d="m 305.932,608.636 c 5.251,2.626 8.568,7.993 8.568,13.864 0,8.556 -6.944,15.5 -15.5,15.5 -8.556,0 -15.5,-6.944 -15.5,-15.5 0,-5.871 3.317,-11.238 8.568,-13.864"
         style="fill:none;stroke:#008080;stroke-width:1.5;stroke-linecap:round;stroke-linejoin:round;stroke-miterlimit:10;stroke-dasharray:none;stroke-opacity:1"
         id="2" /><path
         d="m 375.794,591.323 c 5.051,2.694 8.206,7.953 8.206,13.677 0,8.556 -6.944,15.5 -15.5,15.5 -8.556,0 -15.5,-6.944 -15.5,-15.5 0,-6.022 3.488,-11.499 8.945,-14.046"
         style="fill:none;stroke:#008080;stroke-width:1.5;stroke-linecap:round;stroke-linejoin:round;stroke-miterlimit:10;stroke-dasharray:none;stroke-opacity:1"
         id="3" /><path
         d="m 396.615,657.257 c 5.15,2.704 8.385,8.102 8.385,13.993 0,8.694 -6.944,15.75 -15.5,15.75 -8.556,0 -15.5,-7.056 -15.5,-15.75 0,-6.047 3.407,-11.56 8.767,-14.187"
         style="fill:none;stroke:#008080;stroke-width:1.5;stroke-linecap:round;stroke-linejoin:round;stroke-miterlimit:10;stroke-dasharray:none;stroke-opacity:1"
         id="4" /><path
         d="m 459.389,591.183 c 5.283,2.644 8.611,7.984 8.611,13.817 0,8.556 -7.056,15.5 -15.75,15.5 -8.694,0 -15.75,-6.944 -15.75,-15.5 0,-5.981 3.496,-11.428 8.985,-13.997"
         style="fill:none;stroke:#008080;stroke-width:1.5;stroke-linecap:round;stroke-linejoin:round;stroke-miterlimit:10;stroke-dasharray:none;stroke-opacity:1"
         id="5" /><path
         d="m 497.889,636.683 c 5.283,2.644 8.611,7.984 8.611,13.817 0,8.556 -7.056,15.5 -15.75,15.5 -8.694,0 -15.75,-6.944 -15.75,-15.5 0,-5.981 3.496,-11.428 8.985,-13.997"
         style="display:inline;fill:none;stroke:#008080;stroke-width:1.5;stroke-linecap:round;stroke-linejoin:round;stroke-miterlimit:10;stroke-dasharray:none;stroke-opacity:1"
         id="6" /><path
         d="m 511.988,531.929 c 4.943,2.727 8.012,7.926 8.012,13.571 0,8.556 -6.944,15.5 -15.5,15.5 -8.556,0 -15.5,-6.944 -15.5,-15.5 0,-5.949 3.404,-11.372 8.761,-13.959"
         style="fill:none;stroke:#008080;stroke-width:1.5;stroke-linecap:round;stroke-linejoin:round;stroke-miterlimit:10;stroke-dasharray:none;stroke-opacity:1"
         id="7" /><path
         d="m 560.621,559.733 c 5.147,2.662 8.379,7.972 8.379,13.767 0,8.556 -6.944,15.5 -15.5,15.5 -8.556,0 -15.5,-6.944 -15.5,-15.5 0,-5.949 3.404,-11.372 8.761,-13.959"
         style="fill:none;stroke:#008080;stroke-width:1.5;stroke-linecap:round;stroke-linejoin:round;stroke-miterlimit:10;stroke-dasharray:none;stroke-opacity:1"
         id="8" /><path
         d="m 490.889,441.184 c 5.283,2.643 8.611,7.983 8.611,13.816 0,8.556 -7.056,15.5 -15.75,15.5 -8.694,0 -15.75,-6.944 -15.75,-15.5 0,-5.981 3.496,-11.428 8.985,-13.997"
         style="fill:none;stroke:#008080;stroke-width:1.5;stroke-linecap:round;stroke-linejoin:round;stroke-miterlimit:10;stroke-dasharray:none;stroke-opacity:1"
         id="9" /><path
         d="m 564.115,454.757 c 5.15,2.704 8.385,8.102 8.385,13.993 0,8.694 -6.944,15.75 -15.5,15.75 -8.556,0 -15.5,-7.056 -15.5,-15.75 0,-6.047 3.407,-11.56 8.767,-14.187"
         style="fill:none;stroke:#008080;stroke-width:1.5;stroke-linecap:round;stroke-linejoin:round;stroke-miterlimit:10;stroke-dasharray:none;stroke-opacity:1"
         id="10" /><path
         d="m 428.121,364.233 c 5.147,2.662 8.379,7.972 8.379,13.767 0,8.556 -6.944,15.5 -15.5,15.5 -8.556,0 -15.5,-6.944 -15.5,-15.5 0,-5.949 3.404,-11.372 8.761,-13.959"
         style="fill:none;stroke:#008080;stroke-width:1.5;stroke-linecap:round;stroke-linejoin:round;stroke-miterlimit:10;stroke-dasharray:none;stroke-opacity:1"
         id="11" /><path
         d="m 501.294,371.323 c 5.051,2.694 8.206,7.953 8.206,13.677 0,8.556 -6.944,15.5 -15.5,15.5 -8.556,0 -15.5,-6.944 -15.5,-15.5 0,-6.022 3.488,-11.499 8.945,-14.046"
         style="fill:none;stroke:#008080;stroke-width:1.5;stroke-linecap:round;stroke-linejoin:round;stroke-miterlimit:10;stroke-dasharray:none;stroke-opacity:1"
         id="12" /><path
         d="m 368.981,290.956 c 4.947,2.77 8.019,8.055 8.019,13.794 0,8.694 -6.944,15.75 -15.5,15.75 -8.556,0 -15.5,-7.056 -15.5,-15.75 0,-6.047 3.407,-11.56 8.767,-14.187"
         style="fill:none;stroke:#008080;stroke-width:1.5;stroke-linecap:round;stroke-linejoin:round;stroke-miterlimit:10;stroke-dasharray:none;stroke-opacity:1"
         id="13" /><path
         d="m 435.115,294.257 c 5.15,2.704 8.385,8.102 8.385,13.993 0,8.694 -6.944,15.75 -15.5,15.75 -8.556,0 -15.5,-7.056 -15.5,-15.75 0,-6.047 3.407,-11.56 8.767,-14.187"
         style="fill:none;stroke:#008080;stroke-width:1.5;stroke-linecap:round;stroke-linejoin:round;stroke-miterlimit:10;stroke-dasharray:none;stroke-opacity:1"
         id="14" /><path
         d="m 305.932,217.636 c 5.251,2.626 8.568,7.993 8.568,13.864 0,8.556 -6.944,15.5 -15.5,15.5 -8.556,0 -15.5,-6.944 -15.5,-15.5 0,-5.871 3.317,-11.238 8.568,-13.864"
         style="fill:none;stroke:#008080;stroke-width:1.5;stroke-linecap:round;stroke-linejoin:round;stroke-miterlimit:10;stroke-dasharray:none;stroke-opacity:1"
         id="15" /><path
         d="m 372.294,217.823 c 5.051,2.694 8.206,7.953 8.206,13.677 0,8.556 -6.944,15.5 -15.5,15.5 -8.556,0 -15.5,-6.944 -15.5,-15.5 0,-6.022 3.488,-11.499 8.945,-14.046"
         style="fill:none;stroke:#008080;stroke-width:1.5;stroke-linecap:round;stroke-linejoin:round;stroke-miterlimit:10;stroke-dasharray:none;stroke-opacity:1"
         id="16" /><path
         d="m 243.115,290.757 c 5.15,2.704 8.385,8.102 8.385,13.993 0,8.694 -6.944,15.75 -15.5,15.75 -8.556,0 -15.5,-7.056 -15.5,-15.75 0,-6.047 3.407,-11.56 8.767,-14.187"
         style="fill:none;stroke:#008080;stroke-width:1.5;stroke-linecap:round;stroke-linejoin:round;stroke-miterlimit:10;stroke-dasharray:none;stroke-opacity:1"
         id="17" /><path
         d="m 306.121,140.733 c 5.147,2.662 8.379,7.972 8.379,13.767 0,8.556 -6.944,15.5 -15.5,15.5 -8.556,0 -15.5,-6.944 -15.5,-15.5 0,-5.795 3.232,-11.105 8.379,-13.767"
         style="fill:none;stroke:#008080;stroke-width:1.5;stroke-linecap:round;stroke-linejoin:round;stroke-miterlimit:10;stroke-dasharray:none;stroke-opacity:1"
         id="18" /><path
         d="m 184.082,364.282 c 5.177,2.68 8.418,7.962 8.418,13.718 0,8.556 -7.056,15.5 -15.75,15.5 -8.694,0 -15.75,-6.944 -15.75,-15.5 0,-5.907 3.411,-11.3 8.796,-13.908"
         style="fill:none;stroke:#008080;stroke-width:1.5;stroke-linecap:round;stroke-linejoin:round;stroke-miterlimit:10;stroke-dasharray:none;stroke-opacity:1"
         id="19" /><path
         d="m 239.432,217.636 c 5.251,2.626 8.568,7.993 8.568,13.864 0,8.556 -6.944,15.5 -15.5,15.5 -8.556,0 -15.5,-6.944 -15.5,-15.5 0,-6.022 3.488,-11.499 8.945,-14.046"
         style="fill:none;stroke:#008080;stroke-width:1.5;stroke-linecap:round;stroke-linejoin:round;stroke-miterlimit:10;stroke-dasharray:none;stroke-opacity:1"
         id="20" /><path
         d="m 120.932,441.136 c 5.251,2.626 8.568,7.993 8.568,13.864 0,8.556 -6.944,15.5 -15.5,15.5 -8.556,0 -15.5,-6.944 -15.5,-15.5 0,-6.022 3.488,-11.499 8.945,-14.046"
         style="fill:none;stroke:#008080;stroke-width:1.5;stroke-linecap:round;stroke-linejoin:round;stroke-miterlimit:10;stroke-dasharray:none;stroke-opacity:1"
         id="21" /><path
         d="m 177.115,294.257 c 5.15,2.704 8.385,8.102 8.385,13.993 0,8.694 -6.944,15.75 -15.5,15.75 -8.556,0 -15.5,-7.056 -15.5,-15.75 0,-5.891 3.235,-11.289 8.385,-13.993"
         style="fill:none;stroke:#008080;stroke-width:1.5;stroke-linecap:round;stroke-linejoin:round;stroke-miterlimit:10;stroke-dasharray:none;stroke-opacity:1"
         id="22" /><path
         d="m 100.121,531.733 c 5.147,2.662 8.379,7.972 8.379,13.767 0,8.556 -6.944,15.5 -15.5,15.5 -8.556,0 -15.5,-6.944 -15.5,-15.5 0,-5.949 3.404,-11.372 8.761,-13.959"
         style="fill:none;stroke:#008080;stroke-width:1.5;stroke-linecap:round;stroke-linejoin:round;stroke-miterlimit:10;stroke-dasharray:none;stroke-opacity:1"
         id="23" /><path
         d="m 110.432,371.136 c 5.251,2.626 8.568,7.993 8.568,13.864 0,8.556 -6.944,15.5 -15.5,15.5 -8.556,0 -15.5,-6.944 -15.5,-15.5 0,-6.022 3.488,-11.499 8.945,-14.046"
         style="fill:none;stroke:#008080;stroke-width:1.5;stroke-linecap:round;stroke-linejoin:round;stroke-miterlimit:10;stroke-dasharray:none;stroke-opacity:1"
         id="24" /><path
         d="m 152.432,591.136 c 5.251,2.626 8.568,7.993 8.568,13.864 0,8.556 -6.944,15.5 -15.5,15.5 -8.556,0 -15.5,-6.944 -15.5,-15.5 0,-6.022 3.488,-11.499 8.945,-14.046"
         style="fill:none;stroke:#008080;stroke-width:1.5;stroke-linecap:round;stroke-linejoin:round;stroke-miterlimit:10;stroke-dasharray:none;stroke-opacity:1"
         id="25" /><path
         d="m 48.076,454.807 c 5.18,2.722 8.424,8.091 8.424,13.943 0,8.694 -7.056,15.75 -15.75,15.75 -8.694,0 -15.75,-7.056 -15.75,-15.75 0,-6.004 3.414,-11.486 8.802,-14.135"
         style="fill:none;stroke:#008080;stroke-width:1.5;stroke-linecap:round;stroke-linejoin:round;stroke-miterlimit:10;stroke-dasharray:none;stroke-opacity:1"
         id="26" /><path
         d="m 236.294,591.323 c 5.051,2.694 8.206,7.953 8.206,13.677 0,8.556 -6.944,15.5 -15.5,15.5 -8.556,0 -15.5,-6.944 -15.5,-15.5 0,-6.022 3.488,-11.499 8.945,-14.046"
         style="fill:none;stroke:#008080;stroke-width:1.5;stroke-linecap:round;stroke-linejoin:round;stroke-miterlimit:10;stroke-dasharray:none;stroke-opacity:1"
         id="27" /><path
         d="m 48.082,559.782 c 5.177,2.68 8.418,7.962 8.418,13.718 0,8.556 -7.056,15.5 -15.75,15.5 C 32.056,589 25,582.056 25,573.5 c 0,-5.907 3.411,-11.3 8.796,-13.908"
         style="fill:none;stroke:#008080;stroke-width:1.5;stroke-linecap:round;stroke-linejoin:round;stroke-miterlimit:10;stroke-dasharray:none;stroke-opacity:1"
         id="28" /><path
         d="m 215.576,657.307 c 5.18,2.722 8.424,8.091 8.424,13.943 0,8.694 -7.056,15.75 -15.75,15.75 -8.694,0 -15.75,-7.056 -15.75,-15.75 0,-6.004 3.414,-11.486 8.802,-14.135"
         style="fill:none;stroke:#008080;stroke-width:1.5;stroke-linecap:round;stroke-linejoin:round;stroke-miterlimit:10;stroke-dasharray:none;stroke-opacity:1"
         id="29" /><path
         d="m 113.932,636.636 c 5.251,2.626 8.568,7.993 8.568,13.864 0,8.556 -6.944,15.5 -15.5,15.5 -8.556,0 -15.5,-6.944 -15.5,-15.5 0,-6.022 3.488,-11.499 8.945,-14.046"
         style="display:inline;fill:none;fill-opacity:1;stroke:#008080;stroke-width:1.5;stroke-linecap:round;stroke-linejoin:round;stroke-miterlimit:10;stroke-dasharray:none;stroke-opacity:1"
         id="30" /></g></g></svg>
